Sprint_08100001_forces_filt999Hz.mot
version=1
nRows=38
nColumns=19
inDegrees=yes
endheader
time	R_ground_force_vx	R_ground_force_vy	R_ground_force_vz	R_ground_force_px	R_ground_force_py	R_ground_force_pz	R_ground_torque_x	R_ground_torque_y	R_ground_torque_z	L_ground_force_vx	L_ground_force_vy	L_ground_force_vz	L_ground_force_px	L_ground_force_py	L_ground_force_pz	L_ground_torque_x	L_ground_torque_y	L_ground_torque_z	
4.390500	  0.000000	  0.000000	  0.000000	  0.040675	  0.000000	 -0.234295	  0.000000	  0.000000	  0.000000	  0.000000	  0.000000	  0.000000	  1.395911	  0.000000	 -0.401339	  0.000000	  0.000000	  0.000000
4.391000	  0.000000	  0.000000	  0.000000	  0.042134	  0.000000	 -0.234404	  0.000000	  0.000000	  0.000000	  0.000000	  0.000000	  0.000000	  1.394539	  0.000000	 -0.401831	  0.000000	  0.000000	  0.000000
4.391500	  0.000000	  0.000000	  0.000000	  0.043593	  0.000000	 -0.234513	  0.000000	  0.000000	  0.000000	  0.000000	  0.000000	  0.000000	  1.393167	  0.000000	 -0.402323	  0.000000	  0.000000	  0.000000
4.392000	  0.000000	  0.000000	  0.000000	  0.045052	  0.000000	 -0.234622	  0.000000	  0.000000	  0.000000	  0.000000	  0.000000	  0.000000	  1.391795	  0.000000	 -0.402816	  0.000000	  0.000000	  0.000000
4.392500	  0.000000	  0.000000	  0.000000	  0.046511	  0.000000	 -0.234731	  0.000000	  0.000000	  0.000000	  0.000000	  0.000000	  0.000000	  1.390423	  0.000000	 -0.403308	  0.000000	  0.000000	  0.000000
4.393000	  0.000000	  0.000000	  0.000000	  0.047970	  0.000000	 -0.234840	  0.000000	  0.000000	  0.000000	  0.000000	  0.000000	  0.000000	  1.389051	  0.000000	 -0.403800	  0.000000	  0.000000	  0.000000
4.393500	  0.000000	  0.000000	  0.000000	  0.049429	  0.000000	 -0.234949	  0.000000	  0.000000	  0.000000	  0.000000	  0.000000	  0.000000	  1.387679	  0.000000	 -0.404292	  0.000000	  0.000000	  0.000000
4.394000	  0.000000	  0.000000	  0.000000	  0.050888	  0.000000	 -0.235057	  0.000000	  0.000000	  0.000000	  0.000000	  0.000000	  0.000000	  1.386306	  0.000000	 -0.404785	  0.000000	  0.000000	  0.000000
4.394500	  0.000000	  0.000000	  0.000000	  0.052346	  0.000000	 -0.235166	  0.000000	  0.000000	  0.000000	  0.000000	  0.000000	  0.000000	  1.384934	  0.000000	 -0.405277	  0.000000	  0.000000	  0.000000
4.395000	  0.000000	  0.000000	  0.000000	  0.053805	  0.000000	 -0.235275	  0.000000	  0.000000	  0.000000	  0.000000	  0.000000	  0.000000	  1.383562	  0.000000	 -0.405769	  0.000000	  0.000000	  0.000000
4.395500	  0.000000	  0.000000	  0.000000	  0.055504	  0.000000	 -0.235279	  0.000000	  0.000000	  0.000000	  0.000000	  0.000000	  0.000000	  1.381891	  0.000000	 -0.406050	  0.000000	  0.000000	  0.000000
4.396000	  0.000000	  0.000000	  0.000000	  0.057202	  0.000000	 -0.235283	  0.000000	  0.000000	  0.000000	  0.000000	  0.000000	  0.000000	  1.380219	  0.000000	 -0.406332	  0.000000	  0.000000	  0.000000
4.396500	  0.000000	  0.000000	  0.000000	  0.058901	  0.000000	 -0.235286	  0.000000	  0.000000	  0.000000	  0.000000	  0.000000	  0.000000	  1.378547	  0.000000	 -0.406613	  0.000000	  0.000000	  0.000000
4.397000	  0.000000	  0.000000	  0.000000	  0.060599	  0.000000	 -0.235290	  0.000000	  0.000000	  0.000000	  0.000000	  0.000000	  0.000000	  1.376875	  0.000000	 -0.406895	  0.000000	  0.000000	  0.000000
4.397500	  0.000000	  0.000000	  0.000000	  0.062298	  0.000000	 -0.235293	  0.000000	  0.000000	  0.000000	  0.000000	  0.000000	  0.000000	  1.375204	  0.000000	 -0.407176	  0.000000	  0.000000	  0.000000
4.398000	  0.000000	  0.000000	  0.000000	  0.063996	  0.000000	 -0.235297	  0.000000	  0.000000	  0.000000	  0.000000	  0.000000	  0.000000	  1.373532	  0.000000	 -0.407457	  0.000000	  0.000000	  0.000000
4.398500	  0.000000	  0.000000	  0.000000	  0.065695	  0.000000	 -0.235301	  0.000000	  0.000000	  0.000000	  0.000000	  0.000000	  0.000000	  1.371860	  0.000000	 -0.407739	  0.000000	  0.000000	  0.000000
4.399000	  0.000000	  0.000000	  0.000000	  0.067393	  0.000000	 -0.235304	  0.000000	  0.000000	  0.000000	  0.000000	  0.000000	  0.000000	  1.370188	  0.000000	 -0.408020	  0.000000	  0.000000	  0.000000
4.399500	  0.000000	  0.000000	  0.000000	  0.069092	  0.000000	 -0.235308	  0.000000	  0.000000	  0.000000	  0.000000	  0.000000	  0.000000	  1.368517	  0.000000	 -0.408301	  0.000000	  0.000000	  0.000000
4.400000	  0.000000	  0.000000	  0.000000	  0.070790	  0.000000	 -0.235312	  0.000000	  0.000000	  0.000000	  0.000000	  0.000000	  0.000000	  1.366845	  0.000000	 -0.408583	  0.000000	  0.000000	  0.000000
4.400500	  0.000000	  0.000000	  0.000000	  0.072636	  0.000000	 -0.235323	  0.000000	  0.000000	  0.000000	  0.000000	  0.000000	  0.000000	  1.364932	  0.000000	 -0.408692	  0.000000	  0.000000	  0.000000
4.401000	  0.000000	  0.000000	  0.000000	  0.074482	  0.000000	 -0.235335	  0.000000	  0.000000	  0.000000	  0.000000	  0.000000	  0.000000	  1.363018	  0.000000	 -0.408801	  0.000000	  0.000000	  0.000000
4.401500	  0.000000	  0.000000	  0.000000	  0.076327	  0.000000	 -0.235347	  0.000000	  0.000000	  0.000000	  0.000000	  0.000000	  0.000000	  1.361105	  0.000000	 -0.408910	  0.000000	  0.000000	  0.000000
4.402000	  0.000000	  0.000000	  0.000000	  0.078173	  0.000000	 -0.235358	  0.000000	  0.000000	  0.000000	  0.000000	  0.000000	  0.000000	  1.359192	  0.000000	 -0.409019	  0.000000	  0.000000	  0.000000
4.402500	  0.000000	  0.000000	  0.000000	  0.080018	  0.000000	 -0.235370	  0.000000	  0.000000	  0.000000	  0.000000	  0.000000	  0.000000	  1.357279	  0.000000	 -0.409128	  0.000000	  0.000000	  0.000000
4.403000	  0.000000	  0.000000	  0.000000	  0.081864	  0.000000	 -0.235382	  0.000000	  0.000000	  0.000000	  0.000000	  0.000000	  0.000000	  1.355366	  0.000000	 -0.409237	  0.000000	  0.000000	  0.000000
4.403500	  0.000000	  0.000000	  0.000000	  0.083709	  0.000000	 -0.235393	  0.000000	  0.000000	  0.000000	  0.000000	  0.000000	  0.000000	  1.353452	  0.000000	 -0.409346	  0.000000	  0.000000	  0.000000
4.404000	  0.000000	  0.000000	  0.000000	  0.085555	  0.000000	 -0.235405	  0.000000	  0.000000	  0.000000	  0.000000	  0.000000	  0.000000	  1.351539	  0.000000	 -0.409455	  0.000000	  0.000000	  0.000000
4.404500	  0.000000	  0.000000	  0.000000	  0.087400	  0.000000	 -0.235417	  0.000000	  0.000000	  0.000000	  0.000000	  0.000000	  0.000000	  1.349626	  0.000000	 -0.409564	  0.000000	  0.000000	  0.000000
4.405000	  0.000000	  0.000000	  0.000000	  0.089246	  0.000000	 -0.235428	  0.000000	  0.000000	  0.000000	  0.000000	  0.000000	  0.000000	  1.347713	  0.000000	 -0.409674	  0.000000	  0.000000	  0.000000
4.405500	  0.000000	  0.000000	  0.000000	  0.091233	  0.000000	 -0.235419	  0.000000	  0.000000	  0.000000	  0.000000	  0.000000	  0.000000	  1.345579	  0.000000	 -0.409542	  0.000000	  0.000000	  0.000000
4.406000	  0.000000	  0.000000	  0.000000	  0.093220	  0.000000	 -0.235410	  0.000000	  0.000000	  0.000000	  0.000000	  0.000000	  0.000000	  1.343445	  0.000000	 -0.409411	  0.000000	  0.000000	  0.000000
4.406500	  0.000000	  0.000000	  0.000000	  0.095208	  0.000000	 -0.235401	  0.000000	  0.000000	  0.000000	  0.000000	  0.000000	  0.000000	  1.341312	  0.000000	 -0.409279	  0.000000	  0.000000	  0.000000
4.407000	  0.000000	  0.000000	  0.000000	  0.097195	  0.000000	 -0.235392	  0.000000	  0.000000	  0.000000	  0.000000	  0.000000	  0.000000	  1.339178	  0.000000	 -0.409148	  0.000000	  0.000000	  0.000000
4.407500	  0.000000	  0.000000	  0.000000	  0.099182	  0.000000	 -0.235383	  0.000000	  0.000000	  0.000000	  0.000000	  0.000000	  0.000000	  1.337044	  0.000000	 -0.409016	  0.000000	  0.000000	  0.000000
4.408000	  0.000000	  0.000000	  0.000000	  0.101169	  0.000000	 -0.235374	  0.000000	  0.000000	  0.000000	  0.000000	  0.000000	  0.000000	  1.334911	  0.000000	 -0.408884	  0.000000	  0.000000	  0.000000
4.408500	  0.000000	  0.000000	  0.000000	  0.103156	  0.000000	 -0.235365	  0.000000	  0.000000	  0.000000	  0.000000	  0.000000	  0.000000	  1.332777	  0.000000	 -0.408753	  0.000000	  0.000000	  0.000000
4.409000	  0.000000	  0.000000	  0.000000	  0.105143	  0.000000	 -0.235356	  0.000000	  0.000000	  0.000000	  0.000000	  0.000000	  0.000000	  1.330643	  0.000000	 -0.408621	  0.000000	  0.000000	  0.000000
